# xmcd
#
# Track frame offsets: 
#        150
#        34829
#        155112
#        195825
#        237569
#        275108
#
# Disc length: 4130 seconds
#
# Revision: 0
# Processed by: cddbd v1.5.2PL0 Copyright (c) Steve Scherf et al.
# Submitted via: ExactAudioCopy v0.99pb4
#
DISCID=52102006
DTITLE=Baba Ara - The Master Key
DYEAR=1900
DGENRE=Gospel
TTITLE0=Ori  Mi
TTITLE1=Jesu Omo Olorun
TTITLE2=Arinrinajo
TTITLE3=Ile Labo Simi Oko
TTITLE4=Adura Arinrinajo
TTITLE5=Ori Mi (Refined Edition)
EXTD=
EXTT0=
EXTT1=
EXTT2=
EXTT3=
EXTT4=
EXTT5=
PLAYORDER=
